<svg width="48" height="48" viewBox="0 0 48 48" fill="none" xmlns="http://www.w3.org/2000/svg">
<g clip-path="url(#clip0_4_2)">
<path d="M13.7832 27.8915C13.4525 30.1158 9.09615 36.7108 9.50031 33.2833C8.56578 34.6386 6.03694 36.3598 5.18867 35.5838C7.24305 34.3468 -1.60709 34.9431 1.66778 33.5116C0.631008 32.8858 -0.47446 29.8537 0.210866 29.1876C7.86128 39.3496 11.7304 22.5905 18.4655 21.3557C22.3186 20.7341 26.8523 21.7997 29.9211 17.9282C29.6975 17.592 27.8971 17.6449 28.4243 17.1099C30.5186 15.966 33.7823 13.3969 34.1832 10.7708C33.7104 10.6883 31.3557 9.70512 32.3557 9.17862C35.0459 8.927 36.2169 5.44874 38.4853 4.27311C39.2872 3.31315 40.6914 -1.55641 41.6627 0.503055C42.1851 1.94722 41.503 3.44636 41.5413 4.9011C43.5366 1.41438 42.3145 7.50187 41.7314 8.95237C40.9343 10.2041 42.3257 15.0081 40.9598 13.7183C41.6404 17.7506 41.7889 22.2036 40.8352 26.2506C39.6643 20.9265 39.9119 28.917 37.4342 31.0991C34.6833 33.8288 31.2119 44.437 37.3878 42.682C38.3287 40.2313 36.5092 36.4084 36.4677 33.7802C37.3159 32.2366 38.4997 31.1329 39.1882 29.4477C39.0157 33.7231 39.0396 37.9499 39.6115 42.1513C40.8049 40.0622 42.8608 37.8505 44.7842 39.1953C45.0287 42.6947 46.2731 45.3779 48 47.8603C32.1896 48.1478 16.1763 47.7863 0.300326 48.0019C0.886607 45.8114 4.66309 44.9508 6.56252 43.7984C7.61846 42.4092 11.3103 38.9225 10.0371 42.9294C13.8886 44.9064 12.8934 41.6734 11.9189 37.8441C11.8263 34.3553 14.7321 32.7652 13.7832 27.8957V27.8915ZM31.8094 39.6182C33.0714 31.1371 25.4961 28.1071 20.6876 29.6697C19.3649 36.1758 10.8821 34.977 15.435 43.2339C16.2178 42.8596 17.9878 41.7834 18.0038 43.6525C18.0038 43.9866 18.2642 43.8174 18.4223 43.8344C19.2466 42.3712 17.3472 38.9669 16.7114 37.2246C16.1459 34.903 19.63 34.6957 20.2051 32.5432C23.1685 25.7537 22.456 33.2791 19.6316 35.4273C17.9255 37.6327 20.531 40.927 20.94 43.3819C22.9784 44.2234 25.643 43.3903 27.6223 42.2993C29.5074 41.8679 32.4979 43.5489 31.8094 39.616V39.6182Z" fill="white"/>
</g>
<defs>
<clipPath id="clip0_4_2">
<rect width="48" height="48" fill="white"/>
</clipPath>
</defs>
</svg>
