<svg width="269" height="38" viewBox="0 0 269 38" fill="none" xmlns="http://www.w3.org/2000/svg">
<path d="M35.144 37H27.416L26.84 23.992C26.68 20.888 26.6 18.12 26.6 15.688C26.6 13.832 26.648 12.072 26.744 10.408L21.608 33.496H14.168L8.69598 10.408C8.88798 13.192 8.98398 15.816 8.98398 18.28C8.98398 20.136 8.93598 22.072 8.83998 24.088L8.26398 37H0.583984L3.07998 3.736H13.016L18.008 26.296L22.664 3.736H32.648L35.144 37Z" fill="#390054"/>
<path d="M59.9664 29.608C59.9664 30.568 60.0944 31.272 60.3504 31.72C60.6384 32.168 61.0864 32.504 61.6944 32.728L60.1104 37.672C58.5424 37.544 57.2624 37.208 56.2704 36.664C55.2784 36.088 54.5104 35.192 53.9664 33.976C52.3024 36.536 49.7424 37.816 46.2864 37.816C43.7584 37.816 41.7424 37.08 40.2384 35.608C38.7344 34.136 37.9824 32.216 37.9824 29.848C37.9824 27.064 39.0064 24.936 41.0544 23.464C43.1024 21.992 46.0624 21.256 49.9344 21.256H52.5264V20.152C52.5264 18.648 52.2064 17.624 51.5664 17.08C50.9264 16.504 49.8064 16.216 48.2064 16.216C47.3744 16.216 46.3664 16.344 45.1824 16.6C43.9984 16.824 42.7824 17.144 41.5344 17.56L39.8064 12.568C41.4064 11.96 43.0384 11.496 44.7024 11.176C46.3984 10.856 47.9664 10.696 49.4064 10.696C53.0544 10.696 55.7264 11.448 57.4224 12.952C59.1184 14.456 59.9664 16.712 59.9664 19.72V29.608ZM48.4944 32.392C50.2224 32.392 51.5664 31.576 52.5264 29.944V25.432H50.6544C48.9264 25.432 47.6304 25.736 46.7664 26.344C45.9344 26.952 45.5184 27.896 45.5184 29.176C45.5184 30.2 45.7744 31 46.2864 31.576C46.8304 32.12 47.5664 32.392 48.4944 32.392Z" fill="#390054"/>
<path d="M79.8312 10.792C80.7592 10.792 81.6072 10.904 82.3752 11.128L81.1752 18.472C80.2152 18.248 79.4472 18.136 78.8712 18.136C77.3672 18.136 76.2152 18.664 75.4152 19.72C74.6472 20.744 74.0392 22.296 73.5912 24.376V37H66.0072V11.512H72.6312L73.2552 16.456C73.8312 14.696 74.6952 13.32 75.8472 12.328C77.0312 11.304 78.3592 10.792 79.8312 10.792Z" fill="#390054"/>
<path d="M94.8597 10.696C96.6197 10.696 98.2037 10.952 99.6117 11.464C101.02 11.976 102.348 12.76 103.596 13.816L100.332 18.328C98.7317 17.112 97.1157 16.504 95.4837 16.504C93.7877 16.504 92.5077 17.128 91.6437 18.376C90.7797 19.624 90.3477 21.64 90.3477 24.424C90.3477 27.112 90.7797 29.016 91.6437 30.136C92.5077 31.256 93.7557 31.816 95.3877 31.816C96.2517 31.816 97.0357 31.688 97.7397 31.432C98.4437 31.144 99.2917 30.696 100.284 30.088L103.596 34.792C101.068 36.808 98.2037 37.816 95.0037 37.816C92.4117 37.816 90.1717 37.272 88.2837 36.184C86.3957 35.064 84.9397 33.512 83.9157 31.528C82.8917 29.512 82.3797 27.16 82.3797 24.472C82.3797 21.784 82.8917 19.4 83.9157 17.32C84.9397 15.24 86.3957 13.624 88.2837 12.472C90.1717 11.288 92.3637 10.696 94.8597 10.696Z" fill="#390054"/>
<path d="M116.891 10.696C120.795 10.696 123.851 11.896 126.059 14.296C128.267 16.664 129.371 19.992 129.371 24.28C129.371 27 128.859 29.384 127.835 31.432C126.843 33.448 125.403 35.016 123.515 36.136C121.659 37.256 119.451 37.816 116.891 37.816C113.019 37.816 109.963 36.632 107.723 34.264C105.515 31.864 104.411 28.52 104.411 24.232C104.411 21.512 104.907 19.144 105.899 17.128C106.923 15.08 108.363 13.496 110.219 12.376C112.107 11.256 114.331 10.696 116.891 10.696ZM116.891 16.264C115.355 16.264 114.203 16.92 113.435 18.232C112.667 19.512 112.283 21.512 112.283 24.232C112.283 27.016 112.651 29.048 113.387 30.328C114.155 31.608 115.323 32.248 116.891 32.248C118.427 32.248 119.579 31.608 120.347 30.328C121.115 29.016 121.499 27 121.499 24.28C121.499 21.496 121.115 19.464 120.347 18.184C119.611 16.904 118.459 16.264 116.891 16.264Z" fill="#390054"/>
<path d="M142.858 10.696C144.682 10.696 146.394 10.968 147.994 11.512C149.594 12.056 151.002 12.824 152.218 13.816L149.434 18.088C147.354 16.776 145.258 16.12 143.146 16.12C142.154 16.12 141.386 16.296 140.842 16.648C140.33 16.968 140.074 17.432 140.074 18.04C140.074 18.52 140.186 18.92 140.41 19.24C140.666 19.528 141.162 19.832 141.898 20.152C142.634 20.472 143.77 20.856 145.306 21.304C147.962 22.072 149.93 23.08 151.21 24.328C152.522 25.544 153.178 27.24 153.178 29.416C153.178 31.144 152.682 32.648 151.69 33.928C150.698 35.176 149.338 36.136 147.61 36.808C145.882 37.48 143.962 37.816 141.85 37.816C139.706 37.816 137.706 37.48 135.85 36.808C134.026 36.136 132.474 35.208 131.194 34.024L134.89 29.896C137.034 31.56 139.29 32.392 141.658 32.392C142.81 32.392 143.706 32.184 144.346 31.768C145.018 31.352 145.354 30.76 145.354 29.992C145.354 29.384 145.226 28.904 144.97 28.552C144.714 28.2 144.218 27.88 143.482 27.592C142.746 27.272 141.578 26.888 139.978 26.44C137.45 25.704 135.562 24.68 134.314 23.368C133.066 22.056 132.442 20.424 132.442 18.472C132.442 17 132.858 15.688 133.69 14.536C134.554 13.352 135.77 12.424 137.338 11.752C138.938 11.048 140.778 10.696 142.858 10.696Z" fill="#390054"/>
<path d="M205.676 3.736L200.108 37H189.884L185.756 11.608L181.388 37H171.404L165.932 3.736H173.804L177.116 31.048L181.724 3.736H189.98L194.3 31.048L198.188 3.736H205.676Z" fill="#390054"/>
<path d="M219.688 10.696C223.592 10.696 226.648 11.896 228.856 14.296C231.064 16.664 232.168 19.992 232.168 24.28C232.168 27 231.656 29.384 230.632 31.432C229.64 33.448 228.2 35.016 226.312 36.136C224.456 37.256 222.248 37.816 219.688 37.816C215.816 37.816 212.76 36.632 210.52 34.264C208.312 31.864 207.208 28.52 207.208 24.232C207.208 21.512 207.704 19.144 208.696 17.128C209.72 15.08 211.16 13.496 213.016 12.376C214.904 11.256 217.128 10.696 219.688 10.696ZM219.688 16.264C218.152 16.264 217 16.92 216.232 18.232C215.464 19.512 215.08 21.512 215.08 24.232C215.08 27.016 215.448 29.048 216.184 30.328C216.952 31.608 218.12 32.248 219.688 32.248C221.224 32.248 222.376 31.608 223.144 30.328C223.912 29.016 224.296 27 224.296 24.28C224.296 21.496 223.912 19.464 223.144 18.184C222.408 16.904 221.256 16.264 219.688 16.264Z" fill="#390054"/>
<path d="M243.447 37.816C241.239 37.816 239.511 37.192 238.263 35.944C237.047 34.664 236.439 32.856 236.439 30.52V1.38399L244.023 0.567993V30.232C244.023 31.288 244.455 31.816 245.319 31.816C245.767 31.816 246.183 31.736 246.567 31.576L248.055 36.952C246.679 37.528 245.143 37.816 243.447 37.816Z" fill="#390054"/>
<path d="M262.593 6.184C261.505 6.184 260.721 6.43999 260.241 6.95199C259.761 7.46399 259.521 8.328 259.521 9.54399V11.512H265.521L264.705 16.792H259.521V37H251.937V16.792H248.097V11.512H251.937V9.256C251.937 6.69599 252.769 4.61599 254.433 3.016C256.129 1.38399 258.545 0.567993 261.681 0.567993C264.209 0.567993 266.529 1.11199 268.641 2.2L266.577 7.14399C265.297 6.50399 263.969 6.184 262.593 6.184Z" fill="#390054"/>
</svg>
